# xmcd CD Database Entry
#
# Track frame offsets:
# 150
# 12588
# 23790
# 32780
# 45613
# 56890
# 69598
# 83458
# 95665
# 107710
# 121103
# 131045
# 141970
# 156053
#
# Disc length: 2249 seconds
#
# Revision: 8
# Processed by: cddbd v1.5.2PL0 Copyright (c) Steve Scherf et al.
# Submitted via: tcd 2.0b
#
DISCID=bc08c70e
DTITLE=BREND LEE 
DYEAR=1900
DGENRE=
TTITLE0=All Alone Am I
TTITLE1=Can't Help Falling in Love
TTITLE2=Dynamite
TTITLE3=Emotions
TTITLE4=Fool#1
TTITLE5=I Left My Heart In San Francisco
TTITLE6=I Want To Be Waトラック 7
TTITLE7=I'm Sorry
TTITLE8=If you Love Me
TTITLE9=トラック 10
TTITLE10=トラック 11
TTITLE11=トラック 12
TTITLE12=トラック 13
TTITLE13=トラック 14
EXTD=
EXTT0=
EXTT1=
EXTT2=
EXTT3=
EXTT4=
EXTT5=
EXTT6=
EXTT7=
EXTT8=
EXTT9=
EXTT10=
EXTT11=
EXTT12=
EXTT13=
PLAYORDER=
